<svg width="400" height="401" viewBox="0 0 400 401" fill="none" xmlns="http://www.w3.org/2000/svg">
<path d="M214.535 258.303C220.133 266.154 229.321 271.273 239.705 271.273C256.761 271.273 270.588 257.462 270.588 240.426C270.588 229.103 264.48 219.206 255.377 213.84L255.394 213.858L227.007 191.193L224.571 189.394C217.651 183.737 213.235 175.139 213.235 165.511C213.235 151.244 222.93 139.24 236.099 135.713L236.941 135.509L324.367 111.845L324.386 111.848C338.932 109.35 349.999 96.6896 349.999 81.4473C349.999 64.4107 336.173 50.5999 319.117 50.5999C310.944 50.5999 303.513 53.771 297.989 58.9486L297.438 59.4842L185.644 178.712L185.244 179.285C179.627 186.964 170.543 191.951 160.293 191.951C145.494 191.951 133.125 181.552 130.112 167.67L130.268 168.315L110.743 73.565L111.326 76.2418C108.849 61.6841 96.1613 50.5999 80.8816 50.5999C63.8258 50.5999 49.9993 64.4108 49.9993 81.4473C49.9993 90.6545 54.0376 98.9196 60.4415 104.572L61.2376 105.251L101.195 134.654C110.171 140.05 116.176 149.877 116.176 161.104C116.176 171.513 111.014 180.718 103.108 186.304L103.111 186.301L62.6115 215.553L62.6133 215.552C54.964 221.167 49.9993 230.217 49.9993 240.426V319.111C49.9993 335.919 63.1926 350.127 80.0137 350.588C96.013 351.026 109.361 339.306 111.473 324.003C112.045 319.856 130.268 233.215 130.268 233.215L130.287 233.099C133.58 219.599 145.765 209.578 160.293 209.578C170.566 209.578 179.668 214.589 185.282 222.296L214.535 258.303Z" fill="#1A3719"/>
</svg>
